<svg xmlns="http://www.w3.org/2000/svg" viewBox="0 0 105.08 67.89"><defs><style>.a{fill:#ea2026;}.b{fill:#999b9f;}.c{fill:#fff;}</style></defs><title>vspj_logo_symbol</title><rect class="a" width="30.69" height="30.69"/><rect class="a" x="37.2" width="30.69" height="30.69"/><rect class="a" x="74.39" width="30.69" height="30.69"/><rect class="b" x="74.39" y="37.2" width="30.69" height="30.69"/><polyline class="c" points="8.84 9.52 12.91 9.52 15.15 18.12 15.32 19.51 15.45 19.51 15.61 18.12 17.82 9.52 21.25 9.52 17.27 22.63 13.15 22.63 8.84 9.52"/><path class="c" d="M49.12,5.81H51.4L52.57,7l1.16-1.19H56L53.15,8.62h-1.3l-2.7-2.81m-2,14.12,2.26-1.62c.2,1.19,1.32,1.89,3.14,1.89,1.17,0,2-.46,2-1,0-1-.57-1.16-3.09-1.65-3-.61-4.19-2.11-4.19-4,0-2.66,2-4.19,5.46-4.19,2.75,0,4.06.77,4.7,2.94l-2.26,1.62c-.22-1.25-1-1.95-2.79-1.95-1.25,0-1.72.48-1.72,1.08,0,.77.51.94,2.22,1.23,3.67.64,5,1.89,5,4.5s-2.22,4.13-5.67,4.13c-2.86-.07-4.46-.91-5.08-3Z"/><path class="c" d="M90.19,15.2a1.57,1.57,0,0,0,1.74-1.62A1.52,1.52,0,0,0,90.19,12H88.48V15.2h1.71M84.9,9.53h5.47c3.71,0,5.2,1.6,5.2,4.2s-2.26,4-5.16,4H88.48v4.9H84.9Z"/><path class="c" d="M83.91,57.31l1.85-1.56c.15.59.61.86,1.34.86a1.21,1.21,0,0,0,1.38-1.27V46.09H92.1v9.49c0,2.06-1.5,3.84-4.9,3.84-1.52,0-2.86-.53-3.29-2.11"/></svg>